{"title":"VIRUS.THE MOVIE 1999.DEWSTRR","uid":4800926,"size":1175428919,"categoryP":"video","categoryS":"movies","magnet":"?xt=urn:btih:b38dbd6edc1f8b7390e9af196ff977ce7f4ddc0c&amp;dn=VIRUS.THE+MOVIE+1999.DEWSTRR&amp;tr=udp%3A%2F%2Ftracker.openbittorrent.com%3A80&amp;tr=udp%3A%2F%2Fopen.demonii.com%3A1337&amp;tr=udp%3A%2F%2Ftracker.coppersurfer.tk%3A6969&amp;tr=udp%3A%2F%2Fexodus.desync.com%3A6969","seeders":4,"leechers":2,"uploader":"dewstrr505","files":15,"time":1238036570,"description":"VIRUS THE MOVIE 1999 DVDRIP\n\nAction | Horror | Thriller | Sci-Fi\n\nA ghostly ship looms silently ahead as the crippled, ocean-going, salvage tug Sea Star approaches. The Sea Star crew, their ship slowly sinking, has sought refuge in the eerie calm of the eye of a typhoon to make repairs and hopefully avert disaster. But something's terribly wrong. The ship, a Russian science vessel bristling with high-tech radar, electronics and other wonders, appears to be deserted. Unfortunately for the crew of the Sea Star, nothing could be further from the truth. Shelter from the storm turns into terror on board as they find themselves stalked by a mutating alien life form that has traveled across time and space, an energy force unlike any in the universe. It is powerful. Intelligent. And it has found the perfect planet to inhabit. Now, in order to survive, it must destroy the one threat to its existence: a virus called man.\n\n[IMG]http://i203.photobucket.com/albums/aa38/476352oop/MOVIES/VRSCP.jpg[/IMG]\n &lt;a href=&quot;\nhttp://www.imdb.com/title/tt0120458/&quot; rel=&quot;nofollow&quot; target=&quot;_NEW&quot;&gt;\nhttp://www.imdb.com/title/tt0120458/&lt;/a&gt;\n\nFormat :      AVI\nFormat/Info :     Audio Video Interleave\nFile size :     1.09 GiB\nDuration :     1h 39mn\nOverall bit rate :     1 575 Kbps\nWriting application :     VirtualDubMod 1.5.4.1 (build 2178/release)\nWriting library :     VirtualDubMod build 2178/release\n\nVideo\nFormat :     MPEG-4 Visual\nFormat settings, BVOP :     Yes\nFormat settings, QPel :     No\nFormat settings, GMC :     No warppoints\nFormat settings, Matrix :     Default\nCodec ID :     DX50\nCodec ID/Hint :     DivX 5\nDuration :     1h 39mn\nBit rate :     1 376 Kbps\nWidth :     704 pixels\nHeight :     304 pixels\nDisplay aspect ratio :     2.35\nFrame rate :     23.976 fps\nResolution :     24 bits\nColorimetry :     4:2:0\nScan type :     Progressive\nBits/(Pixel*Frame) :     0.268\nStream size :     979 MiB (87%)\nWriting library :     DivX 2816\n\nAudio\nFormat :     AC-3\nFormat/Info :     Audio Coding 3\nFormat profile :     Dolby Digital\nCodec ID :     2000\nDuration :     1h 39mn\nBit rate mode :     Constant\nBit rate :     192 Kbps\nChannel(s) :     2 channels\nChannel positions :     L R\nSampling rate :     48.0 KHz\nStream size :     137 MiB (12%)\nAlignment :     Split accross interleaves\nInterleave, duration :     96 ms (2.30 video frames)\nInterleave, preload duration :     96 ms\nLanguage :     English\n\nGeneral\nComplete name : VIRUS.THE MOVIE 1999.DEWSTRR.sfv\nFile size :     1.78 KiB\n\nGeneral\nComplete name : VIRUS.THE MOVIE\nFile size :     47.0 Bytes\n[IMG]http://i203.photobucket.com/albums/aa38/476352oop/MOVIES/VRS1.jpg[/IMG]\n[IMG]http://i203.photobucket.com/albums/aa38/476352oop/MOVIES/VRS2.jpg[/IMG]\n[IMG]http://i203.photobucket.com/albums/aa38/476352oop/MOVIES/VRS3.jpg[/IMG]\n[IMG]http://i203.photobucket.com/albums/aa38/476352oop/MOVIES/VRS4.jpg[/IMG]\n[IMG]http://i203.photobucket.com/albums/aa38/476352oop/MOVIES/VRS5.jpg[/IMG]\n[IMG]http://i203.photobucket.com/albums/aa38/476352oop/MOVIES/VRS6.jpg[/IMG]\n[IMG]http://i203.photobucket.com/albums/aa38/476352oop/MOVIES/VRS7.jpg[/IMG]\n[IMG]http://i203.photobucket.com/albums/aa38/476352oop/MOVIES/VRS8.jpg[/IMG]\n[IMG]http://i203.photobucket.com/albums/aa38/476352oop/MOVIES/VRS9.jpg[/IMG]\n[IMG]http://i203.photobucket.com/albums/aa38/476352oop/MOVIES/VRS10.jpg[/IMG]\nburned with windows [with a couple of other movies on a disk] and played on my philips divx ultra certified dvd player\nbe sure to set your dvd player on the correct aspect ratio\n","torrent":{"xt":"urn:btih:b38dbd6edc1f8b7390e9af196ff977ce7f4ddc0c","amp;dn":"VIRUS.THE+MOVIE+1999.DEWSTRR","amp;tr":["udp%3A%2F%2Ftracker.openbittorrent.com%3A80","udp%3A%2F%2Fopen.demonii.com%3A1337","udp%3A%2F%2Ftracker.coppersurfer.tk%3A6969","udp%3A%2F%2Fexodus.desync.com%3A6969"],"infoHash":"b38dbd6edc1f8b7390e9af196ff977ce7f4ddc0c","infoHashBuffer":{"type":"Buffer","data":[179,141,189,110,220,31,139,115,144,233,175,25,111,249,119,206,127,77,220,12]},"announce":[],"urlList":[]}}